HIERARCHY
ROOT hip
{
  OFFSET 0 0 0
  CHANNELS 6 Xposition Yposition Zposition Zrotation Yrotation Xrotation
  JOINT abdomen
  {
    OFFSET 0 20.6881 -0.73152
    CHANNELS 3 Zrotation Xrotation Yrotation
    JOINT chest
    {
      OFFSET 0 11.7043 -0.48768
      CHANNELS 3 Zrotation Xrotation Yrotation
      JOINT neck
      {
        OFFSET 0 22.1894 -2.19456
        CHANNELS 3 Zrotation Xrotation Yrotation
        JOINT head
        {
          OFFSET -0.24384 7.07133 1.2192
          CHANNELS 3 Zrotation Xrotation Yrotation
          JOINT leftEye
          {
            OFFSET 4.14528 8.04674 8.04672
            CHANNELS 3 Zrotation Xrotation Yrotation
            End Site
            {
              OFFSET 1 0 0
            }
          }
          JOINT rightEye
          {
            OFFSET -3.6576 8.04674 8.04672
            CHANNELS 3 Zrotation Xrotation Yrotation
            End Site
            {
              OFFSET 1 0 0
            }
          }
        }
      }
      JOINT rCollar
      {
        OFFSET -2.68224 19.2634 -4.8768
        CHANNELS 3 Zrotation Xrotation Yrotation
        JOINT rShldr
        {
          OFFSET -8.77824 -1.95073 1.46304
          CHANNELS 3 Zrotation Xrotation Yrotation
          JOINT rForeArm
          {
            OFFSET -28.1742 -1.7115 0.48768
            CHANNELS 3 Zrotation Xrotation Yrotation
            JOINT rHand
            {
              OFFSET -22.5879 0.773209 7.07136
              CHANNELS 3 Zrotation Xrotation Yrotation
              JOINT rThumb1
              {
                OFFSET -1.2192 -0.487915 3.41376
                CHANNELS 3 Zrotation Xrotation Yrotation
                JOINT rThumb2
                {
                  OFFSET -3.37035 -0.52449 3.41376
                  CHANNELS 3 Zrotation Xrotation Yrotation
                  End Site
                  {
                    OFFSET -1.78271 -1.18214 1.43049
                  }
                }
              }
              JOINT rIndex1
              {
                OFFSET -7.75947 0.938293 5.60832
                CHANNELS 3 Zrotation Xrotation Yrotation
                JOINT rIndex2
                {
                  OFFSET -2.54057 -0.884171 1.56538
                  CHANNELS 3 Zrotation Xrotation Yrotation
                  End Site
                  {
                    OFFSET -1.62519 -0.234802 1.16502
                  }
                }
              }
              JOINT rMid1
              {
                OFFSET -8.24714 1.18213 3.41376
                CHANNELS 3 Zrotation Xrotation Yrotation
                JOINT rMid2
                {
                  OFFSET -3.10165 -0.590103 1.0647
                  CHANNELS 3 Zrotation Xrotation Yrotation
                  End Site
                  {
                    OFFSET -2.48547 -0.328903 0.83742
                  }
                }
              }
              JOINT rRing1
              {
                OFFSET -8.82822 0.546677 1.51678
                CHANNELS 3 Zrotation Xrotation Yrotation
                JOINT rRing2
                {
                  OFFSET -2.60934 -0.819778 -0.0198488
                  CHANNELS 3 Zrotation Xrotation Yrotation
                  End Site
                  {
                    OFFSET -2.33842 -0.294052 0.168128
                  }
                }
              }
              JOINT rPinky1
              {
                OFFSET -8.27202 -0.0477905 -0.4584
                CHANNELS 3 Zrotation Xrotation Yrotation
                JOINT rPinky2
                {
                  OFFSET -1.82734 -0.647385 -0.700984
                  CHANNELS 3 Zrotation Xrotation Yrotation
                  End Site
                  {
                    OFFSET -1.69225 -0.51767 -0.607171
                  }
                }
              }
            }
          }
        }
      }
      JOINT lCollar
      {
        OFFSET 2.68224 19.2634 -4.8768
        CHANNELS 3 Zrotation Xrotation Yrotation
        JOINT lShldr
        {
          OFFSET 8.77824 -1.95073 1.46304
          CHANNELS 3 Zrotation Xrotation Yrotation
          JOINT lForeArm
          {
            OFFSET 28.1742 -1.7115 0.48768
            CHANNELS 3 Zrotation Xrotation Yrotation
            JOINT lHand
            {
              OFFSET 22.5879 0.773209 7.07136
              CHANNELS 3 Zrotation Xrotation Yrotation
              JOINT lThumb1
              {
                OFFSET 1.2192 -0.487915 3.41376
                CHANNELS 3 Zrotation Xrotation Yrotation
                JOINT lThumb2
                {
                  OFFSET 3.37035 -0.52449 3.41376
                  CHANNELS 3 Zrotation Xrotation Yrotation
                  End Site
                  {
                    OFFSET 1.78271 -1.18214 1.43049
                  }
                }
              }
              JOINT lIndex1
              {
                OFFSET 7.75947 0.938293 5.60832
                CHANNELS 3 Zrotation Xrotation Yrotation
                JOINT lIndex2
                {
                  OFFSET 2.54057 -0.884171 1.56538
                  CHANNELS 3 Zrotation Xrotation Yrotation
                  End Site
                  {
                    OFFSET 1.62519 -0.234802 1.16502
                  }
                }
              }
              JOINT lMid1
              {
                OFFSET 8.24714 1.18213 3.41376
                CHANNELS 3 Zrotation Xrotation Yrotation
                JOINT lMid2
                {
                  OFFSET 3.10165 -0.590103 1.0647
                  CHANNELS 3 Zrotation Xrotation Yrotation
                  End Site
                  {
                    OFFSET 2.48547 -0.328903 0.83742
                  }
                }
              }
              JOINT lRing1
              {
                OFFSET 8.82822 0.546677 1.51678
                CHANNELS 3 Zrotation Xrotation Yrotation
                JOINT lRing2
                {
                  OFFSET 2.60934 -0.819778 -0.0198488
                  CHANNELS 3 Zrotation Xrotation Yrotation
                  End Site
                  {
                    OFFSET 2.33842 -0.294052 0.168128
                  }
                }
              }
              JOINT lPinky1
              {
                OFFSET 8.27202 -0.0477905 -0.4584
                CHANNELS 3 Zrotation Xrotation Yrotation
                JOINT lPinky2
                {
                  OFFSET 1.82734 -0.647385 -0.700984
                  CHANNELS 3 Zrotation Xrotation Yrotation
                  End Site
                  {
                    OFFSET 1.69225 -0.51767 -0.607171
                  }
                }
              }
            }
          }
        }
      }
    }
  }
  JOINT rButtock
  {
    OFFSET -8.77824 4.35084 1.2192
    CHANNELS 3 Zrotation Xrotation Yrotation
    JOINT rThigh
    {
      OFFSET 0 -1.70687 -2.19456
      CHANNELS 3 Zrotation Xrotation Yrotation
      JOINT rShin
      {
        OFFSET 0 -36.8199 0.73152
        CHANNELS 3 Zrotation Xrotation Yrotation
        JOINT rFoot
        {
          OFFSET 0.73152 -45.1104 -5.12064
          CHANNELS 3 Zrotation Xrotation Yrotation
          End Site
          {
            OFFSET -1.1221 -3.69964 12.103
          }
        }
      }
    }
  }
  JOINT lButtock
  {
    OFFSET 8.77824 4.35084 1.2192
    CHANNELS 3 Zrotation Xrotation Yrotation
    JOINT lThigh
    {
      OFFSET 0 -1.70687 -2.19456
      CHANNELS 3 Zrotation Xrotation Yrotation
      JOINT lShin
      {
        OFFSET 0 -36.8199 0.73152
        CHANNELS 3 Zrotation Xrotation Yrotation
        JOINT lFoot
        {
          OFFSET -0.73152 -45.1104 -5.12064
          CHANNELS 3 Zrotation Xrotation Yrotation
          End Site
          {
            OFFSET 1.1221 -3.69964 12.103
          }
        }
      }
    }
  }
}
MOTION
Frames:	6
Frame Time:	0.00833333
-56.2611 85.4272 -78.9836 0.0 0.0 0.0 1.74075 -0.00337329 0.0475548 0.480623 0.000939414 0.0832333 4.43212e-15 7.95139e-16 1.2424e-16 1.35577e-14 9.54166e-15 3.18366e-16 -0.0 0.0 0.0 -0.0 0.0 0.0 2.28474e-15 -5.04727e-18 2.48481e-16 4.60976e-14 3.29237e-16 1.78906e-15 7.80926e-13 -2.34168e-13 3.18055e-15 8.92082e-12 2.26962e-13 1.68569e-13 2.10353e-11 -2.30391e-14 4.10292e-13 3.63017e-11 -4.13472e-14 7.04493e-13 2.10358e-11 -2.50469e-14 3.94389e-13 7.73091 5.47488 0.417314 2.10341e-11 -2.3556e-14 4.10292e-13 2.90554 0.965183 0.102902 2.10359e-11 -2.32578e-14 4.09496e-13 10.2786 0.731801 0.0259123 2.10274e-11 -1.78906e-14 4.23014e-13 2.22167 -0.733487 -0.20892 1.98927e-15 -6.0179e-18 -1.49089e-16 4.45738e-14 2.29845e-16 1.98785e-16 7.77397e-13 2.3218e-13 6.36111e-15 8.91618e-12 -2.43735e-13 1.94014e-13 2.10285e-11 -2.79457e-14 4.13472e-13 3.63362e-11 -5.08889e-14 7.09264e-13 2.1027e-11 -3.02153e-14 4.23014e-13 -7.73091 5.47488 -0.417314 2.10299e-11 -2.88238e-14 4.13472e-13 -2.90554 0.965183 -0.102902 2.10272e-11 -2.83268e-14 4.10292e-13 -10.2786 0.731801 -0.0259123 2.10404e-11 -2.22639e-14 4.0075e-13 -2.22167 -0.733487 0.20892 -2.03217e-16 0.0 -3.88251e-19 1.78282 -6.93915 -0.172442 0.0035713 7.00588 0.0919033 -0.484517 -0.0713196 0.0535489 2.03217e-16 0.0 3.88251e-19 0.87092 -1.92398 0.00259899 0.00877949 -2.07863 0.0722267 0.449304 3.99793 -0.131031
-49.0135 84.4152 -86.5377 -158.419 84.9971 -153.85 2.93755 0.678948 -0.06207 0.911512 -1.5016 0.114106 -1.8291 -1.57055 -1.30156 1.41213 4.81015 -1.7409 -0.0 0.0 0.0 -0.0 0.0 0.0 -2.74045e-14 -1.02535e-13 -2.20612e-14 20.5621 6.25584 -1.67448 -4.30444 -1.9729 6.70455 0.0621743 5.53602 0.764982 5.53449e-10 3.02249e-10 -2.87337e-10 9.51928e-10 5.23308e-10 -5.05897e-10 5.5345e-10 3.02246e-10 -2.87351e-10 7.73091 5.47488 0.417314 5.53449e-10 3.02247e-10 -2.87336e-10 2.90554 0.965183 0.102902 5.5345e-10 3.02247e-10 -2.87336e-10 10.2786 0.731801 0.0259123 5.53442e-10 3.02252e-10 -2.87324e-10 2.22167 -0.733487 -0.20892 -2.7649e-14 -1.02538e-13 -2.2418e-14 -23.2154 5.34829 0.715001 3.60564 -1.53267 -5.74114 -0.0330618 -4.03534 0.562061 3.24832e-10 3.18553e-11 7.53354e-10 5.54986e-10 5.64846e-11 1.30512e-09 3.2483e-10 3.18534e-11 7.53362e-10 -7.73091 5.47488 -0.417314 3.24834e-10 3.18546e-11 7.53354e-10 -2.90554 0.965183 -0.102902 3.2483e-10 3.18551e-11 7.53352e-10 -10.2786 0.731801 -0.0259123 3.24843e-10 3.18603e-11 7.53345e-10 -2.22167 -0.733487 0.20892 -2.03217e-16 0.0 -3.88251e-19 0.476287 -6.64545 -3.05562 0.00761124 7.7849 0.130267 -0.543915 -2.63192 -2.8275 2.03217e-16 0.0 3.88251e-19 3.46749 -4.58394 -4.40175 0.00463274 3.03163 -0.0714828 0.868114 -1.16334 3.31939
-49.0098 84.4154 -86.5962 -159.048 84.9168 -154.491 4.20668 1.3987 -0.178815 1.36975 -3.08803 0.146643 -3.84005 -3.22743 -2.68078 3.22378 9.88168 -3.62214 -0.0 0.0 0.0 -0.0 0.0 0.0 -5.99478e-14 -2.2721e-13 -4.55776e-14 42.7063 12.858 -3.50825 -8.35896 -3.97024 13.8214 -0.0357282 11.3797 1.59704 1.13367e-09 6.32091e-10 -5.98783e-10 1.94985e-09 1.09442e-09 -1.05429e-09 1.13367e-09 6.32087e-10 -5.98795e-10 7.73091 5.47488 0.417314 1.13367e-09 6.32088e-10 -5.98781e-10 2.90554 0.965183 0.102902 1.13367e-09 6.32088e-10 -5.9878e-10 10.2786 0.731801 0.0259123 1.13367e-09 6.32092e-10 -5.9877e-10 2.22167 -0.733487 -0.20892 -6.01407e-14 -2.27217e-13 -4.58913e-14 -47.9062 11.0066 1.49199 7.08613 -3.10224 -11.825 0.0189219 -8.30442 1.16621 6.52255e-10 7.22759e-11 1.58149e-09 1.11378e-09 1.27892e-10 2.73975e-09 6.52252e-10 7.22744e-11 1.58149e-09 -7.73091 5.47488 -0.417314 6.52256e-10 7.22754e-11 1.58149e-09 -2.90554 0.965183 -0.102902 6.52252e-10 7.22759e-11 1.58149e-09 -10.2786 0.731801 -0.0259123 6.52264e-10 7.22801e-11 1.58148e-09 -2.22167 -0.733487 0.20892 -2.03217e-16 0.0 -3.88251e-19 -0.870596 -6.31947 -6.09929 0.010735 8.6084 0.171008 -0.887368 -5.31818 -5.89199 2.03217e-16 0.0 3.88251e-19 5.76872 -7.33153 -9.10157 0.0283567 8.43267 -0.225513 1.98779 -6.57166 7.01004
-49.0045 84.4164 -86.6465 -159.432 84.8412 -154.895 5.33899 2.04357 -0.281486 1.77817 -4.50667 0.176278 -5.70179 -4.70192 -3.91642 5.13605 14.3763 -5.37301 -0.0 0.0 0.0 -0.0 0.0 0.0 -8.67829e-14 -3.07595e-13 -6.66806e-14 62.8337 18.7016 -5.27264 -11.5542 -5.59519 20.2021 -0.27323 16.596 2.38359 1.61828e-09 9.06792e-10 -8.6283e-10 2.78318e-09 1.57001e-09 -1.5191e-09 1.61828e-09 9.06788e-10 -8.62841e-10 7.73091 5.47488 0.417314 1.61828e-09 9.06788e-10 -8.62827e-10 2.90554 0.965183 0.102902 1.61828e-09 9.06788e-10 -8.62826e-10 10.2786 0.731801 0.0259123 1.61827e-09 9.06791e-10 -8.62817e-10 2.22167 -0.733487 -0.20892 -8.69257e-14 -3.07603e-13 -6.69559e-14 -70.0603 16.0347 2.22216 9.90858 -4.41368 -17.2701 0.142888 -12.1013 1.72024 9.3244e-10 9.56219e-11 2.25924e-09 1.59229e-09 1.69556e-10 3.91393e-09 9.32437e-10 9.56207e-11 2.25924e-09 -7.73091 5.47488 -0.417314 9.32442e-10 9.56215e-11 2.25923e-09 -2.90554 0.965183 -0.102902 9.32436e-10 9.5622e-11 2.25924e-09 -10.2786 0.731801 -0.0259123 9.32449e-10 9.56254e-11 2.25923e-09 -2.22167 -0.733487 0.20892 -2.03217e-16 0.0 -3.88251e-19 -2.04722 -6.01479 -8.81174 0.0125186 9.34293 0.207518 -1.43794 -7.6753 -8.6588 2.03217e-16 0.0 3.88251e-19 7.43101 -9.68033 -13.3618 0.0746678 13.2519 -0.368314 3.58697 -11.3071 10.422
-48.9987 84.4102 -86.6865 -159.647 84.7865 -155.133 6.12363 2.50122 -0.348807 2.05866 -5.50586 0.198304 -7.03911 -5.72972 -4.78195 6.65663 17.48 -6.65483 -0.0 0.0 0.0 -0.0 0.0 0.0 -9.9347e-14 -2.77251e-13 -8.17502e-14 77.0935 22.7109 -6.62694 -13.5523 -6.59882 24.6577 -0.531121 20.2549 2.9728 1.86383e-09 1.04364e-09 -1.00838e-09 3.20507e-09 1.80677e-09 -1.77496e-09 1.86383e-09 1.04363e-09 -1.00839e-09 7.73091 5.47488 0.417314 1.86383e-09 1.04364e-09 -1.00838e-09 2.90554 0.965183 0.102902 1.86383e-09 1.04363e-09 -1.00838e-09 10.2786 0.731801 0.0259123 1.86383e-09 1.04364e-09 -1.00837e-09 2.22167 -0.733487 -0.20892 -9.94442e-14 -2.7726e-13 -8.19987e-14 -85.5747 19.4966 2.76141 11.7221 -5.25572 -21.0734 0.273436 -14.7223 2.11634 1.09453e-09 7.62816e-11 2.56102e-09 1.87009e-09 1.36859e-10 4.437e-09 1.09453e-09 7.62804e-11 2.56102e-09 -7.73091 5.47488 -0.417314 1.09454e-09 7.62811e-11 2.56102e-09 -2.90554 0.965183 -0.102902 1.09453e-09 7.62817e-11 2.56102e-09 -10.2786 0.731801 -0.0259123 1.09454e-09 7.62844e-11 2.56102e-09 -2.22167 -0.733487 0.20892 -2.03217e-16 0.0 -3.88251e-19 -2.8616 -5.79176 -10.7033 0.0131973 9.85504 0.23306 -1.95812 -9.28369 -10.6155 2.03217e-16 0.0 3.88251e-19 8.3627 -11.2363 -16.3892 0.121762 16.6168 -0.473041 5.05426 -14.5412 12.9137
-48.9827 84.4067 -86.7168 -159.807 84.7596 -155.315 6.41852 2.70012 -0.3639 2.15436 -5.92029 0.210074 -7.57951 -6.13894 -5.12305 7.33952 18.6744 -7.17953 -0.0 0.0 0.0 -0.0 0.0 0.0 -9.10944e-14 -6.10224e-14 -8.98837e-14 82.739 24.195 -7.23551 -14.2693 -6.94445 26.3679 -0.658353 21.7502 3.22462 1.77533e-09 9.86134e-10 -9.93167e-10 3.05174e-09 1.70675e-09 -1.74715e-09 1.77533e-09 9.86132e-10 -9.93177e-10 7.73091 5.47488 0.417314 1.77533e-09 9.86132e-10 -9.93164e-10 2.90554 0.965183 0.102902 1.77533e-09 9.86132e-10 -9.93163e-10 10.2786 0.731801 0.0259123 1.77532e-09 9.86133e-10 -9.93154e-10 2.22167 -0.733487 -0.20892 -9.11497e-14 -6.10303e-14 -9.01182e-14 -91.6452 20.7731 2.97677 12.3908 -5.56065 -22.5479 0.332779 -15.7015 2.26801 1.114e-09 -1.89963e-11 2.30994e-09 1.90651e-09 -2.779e-11 4.00277e-09 1.11399e-09 -1.89975e-11 2.30995e-09 -7.73091 5.47488 -0.417314 1.114e-09 -1.89971e-11 2.30994e-09 -2.90554 0.965183 -0.102902 1.11399e-09 -1.89964e-11 2.30995e-09 -10.2786 0.731801 -0.0259123 1.114e-09 -1.89943e-11 2.30995e-09 -2.22167 -0.733487 0.20892 -2.03217e-16 0.0 -3.88251e-19 -3.19796 -5.69115 -11.4497 0.0133343 10.0558 0.243069 -2.19128 -9.89761 -11.3921 2.03217e-16 0.0 3.88251e-19 8.6497 -11.8172 -17.6201 0.143713 17.9462 -0.516479 5.7278 -15.8178 13.9458
